<svg height="464pt" viewBox="-31 0 463 464" width="464pt" xmlns="http://www.w3.org/2000/svg"><path d="m.5 64h400v352h-400zm0 0" fill="#fcf05a"/><path d="m32.5 416h64v32c0 8.835938-7.164062 16-16 16h-32c-8.835938 0-16-7.164062-16-16zm0 0" fill="#394d5c"/><path d="m304.5 416h64v32c0 8.835938-7.164062 16-16 16h-32c-8.835938 0-16-7.164062-16-16zm0 0" fill="#394d5c"/><path d="m80.5 0h240c35.347656 0 64 28.652344 64 64h-368c0-35.347656 28.652344-64 64-64zm0 0" fill="#e97424"/><path d="m32.5 96h336v144h-336zm0 0" fill="#7fcac9"/><g fill="#e97424"><path d="m112.5 344c0 22.089844-17.910156 40-40 40s-40-17.910156-40-40 17.910156-40 40-40 40 17.910156 40 40zm0 0"/><path d="m368.5 344c0 22.089844-17.910156 40-40 40s-40-17.910156-40-40 17.910156-40 40-40 40 17.910156 40 40zm0 0"/><path d="m200.5 272c30.929688 0 56 25.070312 56 56v88h-112v-88c0-30.929688 25.070312-56 56-56zm0 0"/></g><path d="m168.5 376h64v16h-64zm0 0" fill="#b11e48"/><path d="m168.5 344h64v16h-64zm0 0" fill="#b11e48"/><path d="m168.5 312h64v16h-64zm0 0" fill="#b11e48"/><path d="m120.5 24h160v16h-160zm0 0" fill="#fcf05a"/><path d="m344.5 200h-16v-64h-40v-16h56zm0 0" fill="#fff"/></svg>