<svg height="512pt" viewBox="0 0 512 512" width="512pt" xmlns="http://www.w3.org/2000/svg" xmlns:xlink="http://www.w3.org/1999/xlink"><linearGradient id="a" gradientUnits="userSpaceOnUse" x1="0" x2="512" y1="256" y2="256"><stop offset="0" stop-color="#00f1ff"/><stop offset=".231" stop-color="#00d8ff"/><stop offset=".5138" stop-color="#00c0ff"/><stop offset=".7773" stop-color="#00b2ff"/><stop offset="1" stop-color="#00adff"/></linearGradient><path d="m512 256c0 141.386719-114.613281 256-256 256s-256-114.613281-256-256 114.613281-256 256-256 256 114.613281 256 256zm0 0" fill="url(#a)"/><g fill="#fff"><path d="m385.238281 278.910156-7.257812-36.914062c-6.429688-33.609375-27.882813-38.628906-40.097657-38.628906h-35.441406v-50.574219c0-8.28125-6.714844-15-15-15h-47.480468c-13.40625-26.398438-40.8125-44.542969-72.394532-44.542969-44.753906 0-81.160156 36.410156-81.160156 81.160156v163.832032c0 29.152343 23.089844 53.003906 51.945312 54.242187 5.996094 15.355469 20.933594 26.265625 38.386719 26.265625 17.425781 0 32.351563-10.882812 38.363281-26.203125h78.519532c6.011718 15.320313 20.9375 26.203125 38.363281 26.203125 17.429687 0 32.355469-10.882812 38.363281-26.203125h40.246094c8.285156 0 15-6.71875 15-15v-47.164063c0-24.867187-17.214844-45.789062-40.355469-51.472656zm-47.355469-45.542968c3.519532 0 7.902344 0 10.648438 14.34375l5.960938 30.332031h-52.050782v-44.675781zm-170.316406-110.117188c28.210938 0 51.160156 22.953125 51.160156 51.160156 0 28.210938-22.949218 51.164063-51.160156 51.164063-28.210937 0-51.160156-22.953125-51.160156-51.164063 0-28.210937 22.949219-51.160156 51.160156-51.160156zm9.171875 265.5c-6.179687 0-11.203125-5.027344-11.203125-11.203125 0-6.179687 5.023438-11.203125 11.203125-11.203125 6.175781 0 11.199219 5.023438 11.199219 11.203125 0 6.175781-5.023438 11.203125-11.199219 11.203125zm155.25 0c-6.179687 0-11.203125-5.027344-11.203125-11.203125 0-6.179687 5.023438-11.203125 11.203125-11.203125 6.175781 0 11.199219 5.023438 11.199219 11.203125.003906 6.175781-5.023438 11.203125-11.199219 11.203125zm63.605469-26.203125h-25.242188c-6.011718-15.320313-20.9375-26.203125-38.363281-26.203125-17.429687 0-32.351562 10.882812-38.363281 26.203125h-78.523438c-6.011718-15.320313-20.9375-26.203125-38.363281-26.203125-17.382812 0-32.277343 10.828125-38.316406 26.089844-12.332031-1.15625-22.015625-11.5625-22.015625-24.191406v-100.882813c13.972656 11.375 31.78125 18.214844 51.160156 18.214844 44.753906 0 81.164063-36.410157 81.164063-81.164063 0-2.226562-.117188-4.429687-.292969-6.613281h24.007812v110.246094h-118.636718c-8.28125 0-15 6.71875-15 15 0 8.285156 6.71875 15 15 15h218.136718c1.25 0 2.457032-.167969 3.617188-.457031 11.285156 1.460937 20.03125 11.121093 20.03125 22.796874zm0 0"/><path d="m166.992188 189.410156h18.339843c8.285157 0 15-6.714844 15-15 0-8.28125-6.714843-15-15-15h-3.339843v-11.199218c0-8.285157-6.71875-15-15-15-8.285157 0-15 6.714843-15 15v26.199218c0 8.285156 6.714843 15 15 15zm0 0"/></g></svg>