<?xml version="1.0" encoding="utf-8"?>
<!-- Generator: Adobe Illustrator 16.0.0, SVG Export Plug-In . SVG Version: 6.00 Build 0)  -->
<!DOCTYPE svg PUBLIC "-//W3C//DTD SVG 1.1//EN" "http://www.w3.org/Graphics/SVG/1.1/DTD/svg11.dtd">
<svg version="1.1" id="Layer_1" xmlns="http://www.w3.org/2000/svg" xmlns:xlink="http://www.w3.org/1999/xlink" x="0px" y="0px"
	 width="100px" height="100px" viewBox="0 0 100 100" enable-background="new 0 0 100 100" xml:space="preserve">
<circle fill="#F15825" cx="50.357" cy="50.543" r="48.393"/>
<path fill="#FFFFFF" d="M57.751,67.766c0,4.241-3.437,7.676-7.675,7.676l0,0c-4.237,0-7.676-3.435-7.676-7.676V52.229
	c0-4.242,3.438-7.677,7.676-7.677l0,0c4.24,0,7.675,3.436,7.675,7.677V67.766z"/>
<circle fill="#FFFFFF" cx="50.917" cy="33.976" r="8.33"/>
<path fill="#FFE1BE" d="M53.316,63.576c0,1.502-1.215,2.717-2.711,2.717l0,0c-1.502,0-2.717-1.215-2.717-2.717V52.159
	c0-1.5,1.215-2.715,2.717-2.715l0,0c1.496,0,2.711,1.215,2.711,2.715V63.576z"/>
<circle fill="#FFFFFF" cx="34.07" cy="40.153" r="5.897"/>
<circle fill="#FFFFFF" cx="67.768" cy="40.153" r="5.897"/>
<path fill="#FFFFFF" d="M38.657,65.52c0,3.207-2.599,5.806-5.805,5.806l0,0c-3.204,0-5.803-2.599-5.803-5.806V53.725
	c0-3.205,2.599-5.803,5.803-5.803l0,0c3.206,0,5.805,2.598,5.805,5.803V65.52z"/>
<path fill="#FFFFFF" d="M73.665,63.364c0,3.052-2.476,5.522-5.524,5.522l0,0c-3.049,0-5.52-2.472-5.52-5.522V52.882
	c0-3.048,2.471-5.521,5.52-5.521l0,0c3.051,0,5.524,2.474,5.524,5.521V63.364z"/>
<g>
	<circle fill="#3091DE" cx="181.541" cy="50.252" r="21.541"/>
	<g>
		<rect x="171.624" y="36.021" fill="#EDF4FA" width="19.833" height="28.459"/>
		<rect x="174.707" y="43.068" fill="#97CDE5" width="14.416" height="11.083"/>
		<circle fill="#FFD7AE" cx="182.083" cy="48.609" r="4.292"/>
		<path fill="#F1B38A" d="M179.564,48.977c-0.037-0.037-0.056-0.094-0.056-0.131c0-0.037,0.019-0.092,0.056-0.129l0.26-0.26
			c0.074-0.074,0.186-0.074,0.26,0l0.018,0.02l1.02,1.092c0.037,0.037,0.092,0.037,0.129,0l2.479-2.572h0.021
			c0.074-0.072,0.185-0.072,0.259,0l0.258,0.26c0.074,0.074,0.074,0.184,0,0.258l-2.957,3.072c-0.039,0.037-0.074,0.056-0.131,0.056
			c-0.056,0-0.094-0.019-0.13-0.056l-1.444-1.555L179.564,48.977z"/>
		<g>
			<circle fill="#F1B38A" cx="176.632" cy="58.443" r="1.925"/>
			<circle fill="#F1B38A" cx="181.915" cy="58.443" r="1.926"/>
			<circle fill="#F1B38A" cx="187.198" cy="58.443" r="1.925"/>
		</g>
	</g>
</g>
</svg>
