<?xml version="1.0" encoding="utf-8"?>
<!-- Generator: Adobe Illustrator 16.0.0, SVG Export Plug-In . SVG Version: 6.00 Build 0)  -->
<!DOCTYPE svg PUBLIC "-//W3C//DTD SVG 1.1//EN" "http://www.w3.org/Graphics/SVG/1.1/DTD/svg11.dtd">
<svg version="1.1" id="Layer_1" xmlns="http://www.w3.org/2000/svg" xmlns:xlink="http://www.w3.org/1999/xlink" x="0px" y="0px"
	 width="72.048px" height="89.603px" viewBox="0 0 72.048 89.603" enable-background="new 0 0 72.048 89.603" xml:space="preserve">
<polygon fill="#FF5112" points="64.483,0 64.483,0.63 65.589,0.63 65.589,3.731 66.342,3.731 66.342,0.63 67.447,0.63 67.447,0 "/>
<polygon fill="#FF5112" points="70.917,0 70.249,2.545 69.572,0 68.444,0 68.444,3.731 69.145,3.731 69.145,0.794 69.881,3.731 
	70.606,3.731 71.349,0.794 71.349,3.731 72.047,3.731 72.047,0 "/>
<polygon fill="#FF5112" points="8.47,79.015 8.47,87.487 6.353,87.487 4.236,87.487 2.117,87.487 2.117,79.015 0,79.015 0,89.603 
	10.587,89.603 10.587,79.015 "/>
<polygon fill="#FF5112" points="30.832,79.015 30.832,86.426 26.598,82.192 22.361,86.426 22.361,79.015 20.243,79.015 
	20.243,89.602 22.361,89.602 26.598,85.368 30.832,89.602 32.95,89.602 32.95,79.015 "/>
<polygon fill="#FF5112" points="61.776,79.015 61.776,82.192 61.776,86.354 55.424,79.015 53.305,79.015 53.305,89.602 
	55.424,89.602 55.424,82.192 61.776,89.602 63.894,89.602 63.894,79.015 "/>
<rect x="41.625" y="79.016" fill="#FF5112" width="2.092" height="10.587"/>
<g>
	<path fill="#FF5112" d="M46.977,4.08H19.438h-2.503c-9.181,0-16.691,7.511-16.691,16.692v30.042c0,9.18,7.51,16.69,16.691,16.69
		h30.042c9.18,0,16.69-7.511,16.69-16.69V20.771V4.08H46.977z M17.969,62.321c-2.973-0.199-5.891-0.78-8.339-2.667
		c-2.911-2.498-2.911-6.802-2.911-6.802l18.237,9.188C24.956,62.04,20.277,62.475,17.969,62.321 M54.248,59.654
		c-2.447,1.887-5.365,2.468-8.338,2.667c-2.308,0.154-6.987-0.281-6.987-0.281l18.237-9.188
		C57.16,52.852,57.16,57.156,54.248,59.654"/>
</g>
</svg>
