<?xml version="1.0" encoding="utf-8"?>
<!-- Generator: Adobe Illustrator 16.0.0, SVG Export Plug-In . SVG Version: 6.00 Build 0)  -->
<!DOCTYPE svg PUBLIC "-//W3C//DTD SVG 1.1//EN" "http://www.w3.org/Graphics/SVG/1.1/DTD/svg11.dtd">
<svg version="1.1" id="Layer_1" xmlns="http://www.w3.org/2000/svg" xmlns:xlink="http://www.w3.org/1999/xlink" x="0px" y="0px"
	 width="100px" height="100px" viewBox="0 0 100 100" enable-background="new 0 0 100 100" xml:space="preserve">
<g display="none">
	<circle display="inline" fill="#3091DE" cx="50.357" cy="50.543" r="48.393"/>
	<path display="inline" fill="#FFFFFF" d="M57.751,67.766c0,4.241-3.437,7.676-7.675,7.676l0,0c-4.237,0-7.676-3.435-7.676-7.676
		V52.229c0-4.242,3.438-7.677,7.676-7.677l0,0c4.24,0,7.675,3.436,7.675,7.677V67.766z"/>
	<circle display="inline" fill="#FFFFFF" cx="50.917" cy="33.976" r="8.33"/>
	<path display="inline" fill="#FFE1BE" d="M53.316,63.576c0,1.502-1.215,2.717-2.711,2.717l0,0c-1.502,0-2.717-1.215-2.717-2.717
		V52.159c0-1.5,1.215-2.715,2.717-2.715l0,0c1.496,0,2.711,1.215,2.711,2.715V63.576z"/>
	<circle display="inline" fill="#FFFFFF" cx="34.07" cy="40.153" r="5.897"/>
	<circle display="inline" fill="#FFFFFF" cx="67.768" cy="40.153" r="5.897"/>
	<path display="inline" fill="#FFFFFF" d="M38.657,65.52c0,3.207-2.599,5.806-5.805,5.806l0,0c-3.204,0-5.803-2.599-5.803-5.806
		V53.725c0-3.205,2.599-5.803,5.803-5.803l0,0c3.206,0,5.805,2.598,5.805,5.803V65.52z"/>
	<path display="inline" fill="#FFFFFF" d="M73.665,63.364c0,3.052-2.476,5.522-5.524,5.522l0,0c-3.049,0-5.52-2.472-5.52-5.522
		V52.882c0-3.048,2.471-5.521,5.52-5.521l0,0c3.051,0,5.524,2.474,5.524,5.521V63.364z"/>
</g>
<g display="none">
	<circle display="inline" fill="#3091DE" cx="50.541" cy="49.968" r="47.541"/>
	<g display="inline">
		<rect x="28.654" y="18.563" fill="#EDF4FA" width="43.771" height="62.808"/>
		<rect x="35.458" y="34.115" fill="#97CDE5" width="31.815" height="24.457"/>
		<path fill="#FFD7AE" d="M61.207,46.343c0,5.233-4.24,9.47-9.473,9.47c-5.229,0-9.47-4.235-9.47-9.47
			c0-5.232,4.242-9.469,9.47-9.469C56.967,36.874,61.207,41.111,61.207,46.343z"/>
		<path fill="#F1B38A" d="M46.18,47.153c-0.082-0.082-0.123-0.207-0.123-0.289c0-0.082,0.041-0.203,0.123-0.285l0.571-0.573
			c0.164-0.164,0.41-0.164,0.573,0l0.039,0.043l2.248,2.41c0.082,0.082,0.203,0.082,0.285,0l5.469-5.676h0.044
			c0.163-0.16,0.407-0.16,0.569,0l0.57,0.572c0.163,0.164,0.163,0.405,0,0.569l-6.529,6.781c-0.084,0.082-0.164,0.121-0.289,0.121
			c-0.121,0-0.205-0.039-0.284-0.121l-3.188-3.431L46.18,47.153z"/>
		<g>
			<circle fill="#F1B38A" cx="39.707" cy="68.046" r="4.249"/>
			<circle fill="#F1B38A" cx="51.365" cy="68.046" r="4.25"/>
			<path fill="#F1B38A" d="M67.273,68.046c0,2.345-1.9,4.25-4.25,4.25c-2.348,0-4.248-1.905-4.248-4.25c0-2.351,1.9-4.25,4.248-4.25
				C65.373,63.796,67.273,65.695,67.273,68.046z"/>
		</g>
	</g>
</g>
<circle fill="#F15825" cx="50.209" cy="50.252" r="48.372"/>
<g>
	<g>
		<g>
			<path id="SVGID_1_" fill="#FFFFFF" d="M46.703,46.818c-6.741,6.761-13.225,13.263-19.712,19.763
				c-0.481,0.481-0.923,1.162-1.508,1.343c-0.6,0.182-1.514,0.065-1.982-0.308c-0.312-0.25-0.222-1.222-0.047-1.787
				c0.142-0.456,0.663-0.808,1.036-1.181c6.651-6.662,13.305-13.317,19.96-19.976c1.998-1.996,2.381-2.007,4.401,0.031
				c2.242,2.265,4.441,4.572,6.495,6.69c5.43-5.438,10.694-10.714,16.069-16.101c-1.229,0-2.593,0.171-3.877-0.072
				c-0.667-0.123-1.192-0.98-1.785-1.509c0.563-0.485,1.104-1.353,1.692-1.386c2.724-0.149,5.47-0.182,8.187,0.018
				c0.634,0.046,1.646,1.136,1.695,1.803c0.196,2.643,0.178,5.313,0.011,7.963c-0.042,0.634-0.958,1.212-1.477,1.818
				c-0.486-0.627-1.271-1.2-1.402-1.893c-0.23-1.228-0.063-2.531-0.063-4.237c-0.756,0.614-1.215,0.925-1.604,1.312
				c-4.835,4.824-9.662,9.66-14.491,14.493c-2.395,2.401-2.571,2.412-4.888,0.076C51.229,51.475,49.071,49.242,46.703,46.818z"/>
		</g>
	</g>
	<ellipse fill="#F1B38A" cx="24.645" cy="66.437" rx="1.695" ry="1.859"/>
</g>
</svg>
